<svg xmlns="http://www.w3.org/2000/svg" width="21" height="110" viewBox="0 0 21 110">
    <g fill="none" fill-rule="evenodd">
        <path fill="#FFF" d="M0 8c0-4.418 3.586-8 8-8h13v110H8a8 8 0 0 1-8-8V8z"/>
        <path fill="#444" d="M1 8.998A8 8 0 0 1 9.003.991H20v108H9.003A8 8 0 0 1 1 100.984V8.998z"/>
        <path fill="#FFF" d="M10.5 80h.346A4.154 4.154 0 0 1 15 84.154l1.767-.407L15 85.704V87.5a4.5 4.5 0 1 1-9 0v-3a4.5 4.5 0 0 1 4.5-4.5zm0 1A3.5 3.5 0 0 0 7 84.5v3a3.5 3.5 0 0 0 7 0v-3a3.5 3.5 0 0 0-3.5-3.5z"/>
        <path fill="#FFF" fill-rule="nonzero" d="M6.43 72.578v-1.176h7.356v-3.9h1.044v5.076h-8.4zm-.768-7.032c0-.208.066-.384.198-.528.132-.144.318-.216.558-.216.24 0 .424.072.552.216.128.144.192.32.192.528 0 .2-.064.37-.192.51s-.312.21-.552.21c-.24 0-.426-.07-.558-.21a.716.716 0 0 1-.198-.51zm2.88.564v-1.14h6.288v1.14H8.542zm0-7.08v-1.212l6.288 2.556v1.008l-6.288 2.472v-1.2l4.86-1.8-4.86-1.824zm4.632-6.948l.72-.648c.352.352.62.73.804 1.134.184.404.276.918.276 1.542 0 .816-.284 1.52-.852 2.112-.568.592-1.368.888-2.4.888-1.032 0-1.844-.276-2.436-.828-.592-.552-.888-1.28-.888-2.184 0-.872.29-1.546.87-2.022.58-.476 1.294-.714 2.142-.714.288 0 .516.012.684.036v4.548c.6-.056 1.064-.254 1.392-.594.328-.34.492-.79.492-1.35 0-.76-.268-1.4-.804-1.92zm-1.98 3.84v-3.456c-.56.024-1 .186-1.32.486-.32.3-.48.702-.48 1.206 0 .496.158.906.474 1.23.316.324.758.502 1.326.534zm1.812-15.504l.864-.636c.736.8 1.104 1.836 1.104 3.108 0 1.056-.376 1.948-1.128 2.676-.752.728-1.828 1.092-3.228 1.092-.712 0-1.35-.11-1.914-.33-.564-.22-1.018-.514-1.362-.882a3.84 3.84 0 0 1-1.056-2.664c-.008-1.08.284-2.028.876-2.844l.876.624c-.456.672-.684 1.384-.684 2.136 0 .8.282 1.454.846 1.962.564.508 1.37.762 2.418.762s1.86-.254 2.436-.762c.576-.508.86-1.134.852-1.878 0-.872-.3-1.66-.9-2.364zm-7.2-1.932v-1.104h3.648c-.704-.52-1.056-1.184-1.056-1.992 0-.6.188-1.112.564-1.536.376-.424.9-.636 1.572-.636h4.296v1.128h-4.128c-.872 0-1.308.432-1.308 1.296 0 .672.38 1.248 1.14 1.728h4.296v1.116H5.806zm4.212-7.572l-.768.588c-.568-.728-.852-1.536-.852-2.424 0-1.616.76-2.424 2.28-2.424h2.892c.312 0 .468-.12.468-.36 0-.048-.002-.106-.006-.174a3.15 3.15 0 0 1-.006-.126l.792.108c.072.136.108.324.108.564 0 .272-.048.482-.144.63-.096.148-.256.266-.48.354a3 3 0 0 1 .504.858c.112.3.168.682.168 1.146 0 .584-.168 1.086-.504 1.506-.336.42-.784.63-1.344.63-.656 0-1.136-.242-1.44-.726-.304-.484-.456-1.074-.456-1.77a10.047 10.047 0 0 1 .09-1.338c.012-.1.018-.158.018-.174h-.6c-.496 0-.844.114-1.044.342-.2.228-.3.59-.3 1.086 0 .616.208 1.184.624 1.704zm3.384-3.144h-1.176c-.08.52-.12.976-.12 1.368 0 1.024.328 1.536.984 1.536.304 0 .534-.116.69-.348.156-.232.234-.524.234-.876 0-.68-.204-1.24-.612-1.68zm-6.444-3.924v-.612h1.584v-1.536h.924v1.536h3.96c.2 0 .342-.044.426-.132.084-.088.126-.224.126-.408 0-.296-.076-.612-.228-.948l.852-.348c.248.6.372 1.132.372 1.596 0 .912-.432 1.368-1.296 1.368H9.466v1.032h-.924v-1.032h-.816l-.768-.516z"/>
    </g>
</svg>
