<?xml version="1.0" encoding="utf-8"?>
<!-- Generator: Adobe Illustrator 23.0.1, SVG Export Plug-In . SVG Version: 6.00 Build 0)  -->
<svg width="152" height="31" version="1.1" id="Layer_1" xmlns="http://www.w3.org/2000/svg" xmlns:xlink="http://www.w3.org/1999/xlink" x="0px" y="0px"
	 viewBox="0 0 438.7 88.74" style="enable-background:new 0 0 438.7 88.74;" xml:space="preserve">
<style type="text/css">
	.st0{fill:#FFFFFF;}
	.st1{fill-rule:evenodd;clip-rule:evenodd;fill:#FFFFFF;}
	.st2{fill:#727272;}
	.st3{fill-rule:evenodd;clip-rule:evenodd;fill:#1A1A1A;}
	.st4{fill-rule:evenodd;clip-rule:evenodd;fill:#6AB315;}
	.st5{fill-rule:evenodd;clip-rule:evenodd;fill:#69B345;}
	.st6{fill:#F05A26;}
	.st7{fill:#FFCB4E;}
	.st8{fill:#465867;}
	.st9{fill:#2A3C98;}
	.st10{fill:#1A1A1A;}
	.st11{fill:url(#SVGID_1_);}
	.st12{fill:url(#SVGID_2_);}
	.st13{fill-rule:evenodd;clip-rule:evenodd;fill:url(#SVGID_3_);}
	.st14{fill-rule:evenodd;clip-rule:evenodd;fill:url(#SVGID_4_);}
	.st15{fill:url(#SVGID_5_);}
	.st16{fill-rule:evenodd;clip-rule:evenodd;fill:url(#SVGID_6_);}
	.st17{fill:#A0A0A0;}
	.st18{fill:#D51C29;}
	.st19{fill:#790002;}
</style>
<g>
	<g>
		<path class="st6" d="M70.4,8.02H39.58c-2.76,0-3.9,1.95-2.5,4.36l17.91,31.05l17.94-31.05C74.31,10.09,73.18,8.02,70.4,8.02"/>
		<path class="st7" d="M35.77,12.91c-0.82-1.16-0.94-2.68-0.3-3.95c0.23-0.37,0.54-0.69,0.9-0.94H13.73c-2.87,0-4.04,2.02-2.59,4.59
			l28.59,49.47c0.49,1.44,2.06,2.21,3.5,1.71c0.8-0.28,1.44-0.91,1.71-1.71l9.62-16.65L35.77,12.91z"/>
		<path class="st7" d="M96.28,8.02H73.62c0.37,0.24,0.69,0.56,0.92,0.94c0.62,1.28,0.5,2.79-0.32,3.95L55.45,45.43l9.62,16.65
			c0.47,1.43,2.02,2.21,3.45,1.74c0.82-0.27,1.47-0.92,1.74-1.74l28.61-49.47C100.3,10.13,99.13,8.02,96.28,8.02"/>
		<g>
			<polygon class="st8" points="127.33,38.17 132.13,22.6 138.45,22.6 143.2,38.17 148.6,22.6 155.14,22.6 145.68,49.65 
				141.2,49.65 135.28,30.85 129.4,49.65 124.9,49.65 115.46,22.6 122,22.6 			"/>
			<polygon class="st8" points="181.73,22.6 181.73,28 168.25,28 168.25,33.56 180.38,33.56 180.38,38.7 168.25,38.7 168.25,44.33 
				182.15,44.33 182.15,49.65 162.21,49.65 162.21,22.6 			"/>
			<path class="st8" d="M197.44,44.56h4.13c1.33,0.08,2.65-0.14,3.88-0.64c0.91-0.49,1.43-1.5,1.31-2.53
				c0.16-1.04-0.41-2.05-1.38-2.46c-1.37-0.47-2.82-0.69-4.27-0.62h-3.67V44.56z M197.44,33.56h2.85c1.27,0.06,2.54-0.12,3.74-0.53
				c0.84-0.44,1.33-1.35,1.22-2.3c0.13-0.92-0.32-1.83-1.13-2.3c-1.21-0.47-2.5-0.66-3.79-0.57h-2.89V33.56z M203.25,49.63H191.4
				V22.6h10.52c1.61-0.03,3.21,0.2,4.75,0.67c1.13,0.33,2.16,0.93,2.99,1.77c1.18,1.29,1.83,2.98,1.84,4.73
				c0.13,1.82-0.64,3.59-2.07,4.73c-0.31,0.24-0.63,0.47-0.96,0.67l-0.96,0.46c1.56,0.28,2.97,1.09,4,2.3
				c1.02,1.19,1.55,2.71,1.49,4.27c-0.02,1.81-0.71,3.54-1.93,4.87c-2.13,1.9-4.97,2.81-7.81,2.5"/>
			<path class="st8" d="M234.37,44.33c2.85,0.06,5.56-1.26,7.28-3.54l3.86,3.97c-5.18,6.16-14.38,6.96-20.55,1.78
				c-0.21-0.17-0.41-0.35-0.6-0.54c-2.68-2.61-4.15-6.23-4.04-9.97c-0.1-3.77,1.39-7.41,4.11-10.04c2.67-2.66,6.31-4.12,10.08-4.04
				c4.29-0.07,8.39,1.79,11.16,5.08l-3.77,4.25c-1.67-2.25-4.31-3.58-7.12-3.56c-2.16-0.02-4.25,0.8-5.81,2.3
				c-1.65,1.55-2.54,3.75-2.43,6.02c-0.1,2.24,0.73,4.43,2.3,6.04c1.44,1.5,3.45,2.34,5.53,2.3"/>
			<path class="st8" d="M274.26,35.99c0.07-2.28-0.76-4.5-2.3-6.18c-2.77-3.17-7.59-3.5-10.76-0.72c-0.26,0.22-0.5,0.47-0.72,0.72
				c-1.53,1.69-2.35,3.9-2.3,6.18c-0.05,2.27,0.77,4.47,2.3,6.15c2.85,3.17,7.73,3.43,10.9,0.59c0.21-0.18,0.4-0.38,0.59-0.59
				C273.5,40.47,274.32,38.26,274.26,35.99 M276.32,45.93c-5.68,5.33-14.53,5.33-20.21,0c-2.7-2.6-4.19-6.22-4.11-9.97
				c-0.06-3.77,1.47-7.39,4.23-9.97c5.67-5.35,14.54-5.35,20.21,0c2.7,2.6,4.19,6.22,4.09,9.97c0.09,3.75-1.39,7.36-4.09,9.97"/>
			<polygon class="st8" points="289.39,49.65 289.39,22.6 295.43,22.6 295.43,44.28 306.96,44.28 306.96,49.65 			"/>
			<polygon class="st8" points="315.25,49.65 315.25,22.6 321.29,22.6 321.29,44.28 332.82,44.28 332.82,49.65 			"/>
			<path class="st8" d="M352.22,30.66l-3.42,7.85h6.77L352.22,30.66z M360.37,49.65l-2.5-5.83h-11.34l-2.5,5.83h-6.43l11.69-27.05
				h5.83l11.69,27.05H360.37z"/>
			<path class="st8" d="M391.38,35.87h6.09v9.6c-2.84,3.11-6.93,4.8-11.14,4.59c-3.73,0.1-7.35-1.33-10.01-3.95
				c-2.68-2.61-4.15-6.23-4.04-9.97c-0.09-3.78,1.4-7.43,4.11-10.06c2.64-2.63,6.24-4.08,9.97-4.02c3.73-0.05,7.35,1.32,10.1,3.84
				l-3.12,4.59c-0.98-0.95-2.11-1.73-3.35-2.3c-1.06-0.4-2.18-0.6-3.31-0.6c-2.17-0.06-4.27,0.77-5.81,2.3
				c-1.58,1.66-2.41,3.89-2.3,6.18c-0.1,2.27,0.73,4.48,2.3,6.13c1.4,1.49,3.35,2.32,5.4,2.3c1.81,0.07,3.61-0.34,5.21-1.19
				L391.38,35.87z"/>
			<polygon class="st8" points="426.21,22.6 426.21,28 412.76,28 412.76,33.56 424.86,33.56 424.86,38.7 412.76,38.7 412.76,44.33 
				426.65,44.33 426.65,49.65 406.72,49.65 406.72,22.6 			"/>
		</g>
	</g>
	<g>
		<path class="st2" d="M233.12,64.57c0.77,0.72,1.15,1.79,1.15,3.2v6.85h-1.43v-1.72c-0.34,0.57-0.83,1.02-1.48,1.34
			c-0.65,0.32-1.42,0.48-2.32,0.48c-1.23,0-2.21-0.29-2.94-0.88c-0.73-0.59-1.09-1.37-1.09-2.33c0-0.94,0.34-1.69,1.02-2.27
			c0.68-0.57,1.76-0.86,3.24-0.86h3.51v-0.67c0-0.95-0.27-1.68-0.8-2.17c-0.53-0.5-1.31-0.75-2.33-0.75c-0.7,0-1.37,0.12-2.02,0.35
			s-1.2,0.55-1.66,0.96l-0.67-1.11c0.56-0.48,1.23-0.84,2.02-1.1c0.78-0.26,1.61-0.39,2.48-0.39
			C231.24,63.48,232.34,63.84,233.12,64.57z M231.43,72.97c0.6-0.38,1.05-0.94,1.34-1.67v-1.81h-3.46c-1.89,0-2.83,0.66-2.83,1.97
			c0,0.64,0.24,1.15,0.73,1.52c0.49,0.37,1.18,0.56,2.06,0.56C230.11,73.54,230.83,73.35,231.43,72.97z"/>
		<path class="st2" d="M244,74.22c-1-0.35-1.77-0.81-2.32-1.39l0.61-1.2c0.53,0.53,1.24,0.96,2.12,1.29
			c0.88,0.33,1.79,0.49,2.73,0.49c1.32,0,2.3-0.24,2.96-0.72c0.66-0.48,0.99-1.11,0.99-1.88c0-0.59-0.18-1.06-0.54-1.41
			c-0.36-0.35-0.79-0.62-1.31-0.81s-1.24-0.4-2.16-0.62c-1.11-0.28-1.99-0.55-2.65-0.81s-1.22-0.65-1.69-1.19s-0.7-1.25-0.7-2.16
			c0-0.74,0.2-1.42,0.59-2.03c0.39-0.61,0.99-1.1,1.81-1.46c0.81-0.36,1.82-0.55,3.02-0.55c0.84,0,1.66,0.12,2.47,0.35
			c0.8,0.23,1.5,0.55,2.09,0.96l-0.52,1.24c-0.62-0.41-1.27-0.71-1.97-0.91c-0.7-0.2-1.39-0.3-2.06-0.3c-1.29,0-2.26,0.25-2.91,0.75
			s-0.98,1.14-0.98,1.92c0,0.59,0.18,1.06,0.54,1.42s0.8,0.63,1.34,0.82s1.26,0.4,2.17,0.62c1.08,0.27,1.95,0.53,2.61,0.79
			c0.67,0.26,1.23,0.65,1.69,1.18s0.69,1.24,0.69,2.13c0,0.74-0.2,1.42-0.6,2.03s-1.01,1.09-1.84,1.45
			c-0.83,0.36-1.84,0.54-3.05,0.54C246.05,74.74,245,74.57,244,74.22z"/>
		<path class="st2" d="M264.24,63.57l-5.52,12.37c-0.45,1.04-0.97,1.77-1.55,2.2c-0.59,0.43-1.3,0.65-2.12,0.65
			c-0.53,0-1.03-0.08-1.49-0.25c-0.46-0.17-0.86-0.42-1.2-0.76l0.69-1.11c0.56,0.56,1.23,0.84,2.02,0.84c0.5,0,0.93-0.14,1.29-0.42
			c0.36-0.28,0.69-0.76,1-1.43l0.48-1.07l-4.94-11.02h1.55l4.16,9.39l4.16-9.39H264.24z"/>
		<path class="st2" d="M274.75,64.69c0.82,0.81,1.23,1.98,1.23,3.52v6.4h-1.49v-6.26c0-1.15-0.29-2.02-0.86-2.62
			c-0.57-0.6-1.39-0.9-2.46-0.9c-1.19,0-2.13,0.35-2.82,1.06c-0.69,0.71-1.04,1.68-1.04,2.93v5.8h-1.49V63.57h1.43v2.04
			c0.41-0.67,0.97-1.19,1.69-1.56c0.72-0.37,1.56-0.56,2.51-0.56C272.83,63.48,273.93,63.89,274.75,64.69z"/>
		<path class="st2" d="M289.63,59.03v15.58h-1.43v-2.18c-0.45,0.74-1.04,1.31-1.77,1.7s-1.56,0.59-2.49,0.59
			c-1.04,0-1.97-0.24-2.81-0.71c-0.84-0.48-1.5-1.14-1.97-2c-0.48-0.85-0.71-1.83-0.71-2.92c0-1.09,0.24-2.06,0.71-2.92
			c0.48-0.85,1.13-1.52,1.97-1.98c0.84-0.47,1.78-0.7,2.81-0.7c0.9,0,1.7,0.19,2.43,0.56c0.72,0.37,1.31,0.91,1.77,1.63v-6.64
			H289.63z M286.15,72.86c0.62-0.36,1.11-0.86,1.47-1.52c0.36-0.66,0.54-1.41,0.54-2.25s-0.18-1.59-0.54-2.25
			c-0.36-0.66-0.85-1.17-1.47-1.52c-0.62-0.36-1.32-0.54-2.09-0.54c-0.78,0-1.49,0.18-2.11,0.54s-1.11,0.86-1.47,1.52
			c-0.36,0.66-0.54,1.41-0.54,2.25s0.18,1.59,0.54,2.25s0.85,1.17,1.47,1.52s1.33,0.54,2.11,0.54
			C284.83,73.4,285.53,73.22,286.15,72.86z"/>
		<path class="st2" d="M293.24,60.84c-0.21-0.21-0.31-0.46-0.31-0.76c0-0.28,0.1-0.52,0.31-0.73s0.47-0.31,0.78-0.31
			c0.31,0,0.57,0.1,0.78,0.3s0.31,0.44,0.31,0.72c0,0.31-0.1,0.57-0.31,0.78s-0.47,0.31-0.78,0.31
			C293.71,61.15,293.45,61.05,293.24,60.84z M293.26,63.57h1.49v11.05h-1.49V63.57z"/>
		<path class="st2" d="M308.61,63.57v9.7c0,1.88-0.46,3.27-1.38,4.17c-0.92,0.9-2.3,1.35-4.15,1.35c-1.02,0-1.99-0.15-2.91-0.45
			c-0.92-0.3-1.66-0.72-2.24-1.25l0.76-1.13c0.53,0.48,1.18,0.85,1.94,1.11c0.76,0.27,1.56,0.4,2.4,0.4c1.4,0,2.43-0.33,3.09-0.98
			c0.66-0.65,0.99-1.66,0.99-3.03v-1.41c-0.46,0.7-1.07,1.23-1.82,1.6c-0.75,0.36-1.58,0.55-2.49,0.55c-1.04,0-1.98-0.23-2.82-0.68
			c-0.85-0.45-1.51-1.09-2-1.91c-0.48-0.82-0.72-1.75-0.72-2.78s0.24-1.96,0.72-2.77s1.14-1.44,1.98-1.89
			c0.84-0.45,1.79-0.67,2.83-0.67c0.94,0,1.79,0.19,2.54,0.57c0.76,0.38,1.37,0.92,1.83,1.64v-2.12H308.61z M305.12,72.36
			c0.64-0.34,1.14-0.82,1.5-1.44c0.36-0.62,0.54-1.32,0.54-2.1s-0.18-1.48-0.54-2.09c-0.36-0.61-0.85-1.08-1.49-1.43
			c-0.64-0.34-1.36-0.51-2.17-0.51c-0.8,0-1.52,0.17-2.15,0.5c-0.64,0.34-1.13,0.81-1.49,1.43c-0.36,0.62-0.54,1.32-0.54,2.1
			s0.18,1.48,0.54,2.1s0.85,1.1,1.49,1.44s1.35,0.51,2.15,0.51C303.76,72.87,304.48,72.7,305.12,72.36z"/>
		<path class="st2" d="M313.9,73.99c-0.85-0.48-1.53-1.15-2.02-2.01c-0.49-0.85-0.74-1.82-0.74-2.9s0.25-2.04,0.74-2.9
			c0.49-0.85,1.16-1.52,2.02-2c0.85-0.48,1.81-0.71,2.88-0.71c1.06,0,2.02,0.24,2.88,0.71c0.85,0.48,1.52,1.14,2.01,2
			s0.72,1.82,0.72,2.9s-0.24,2.04-0.72,2.9s-1.15,1.52-2.01,2.01c-0.85,0.48-1.81,0.72-2.88,0.72
			C315.71,74.72,314.75,74.48,313.9,73.99z M318.89,72.86c0.62-0.36,1.11-0.86,1.46-1.52c0.35-0.66,0.52-1.41,0.52-2.25
			s-0.18-1.59-0.52-2.25c-0.35-0.66-0.84-1.17-1.46-1.52c-0.62-0.36-1.33-0.54-2.11-0.54c-0.78,0-1.49,0.18-2.11,0.54
			s-1.11,0.86-1.47,1.52c-0.36,0.66-0.54,1.41-0.54,2.25s0.18,1.59,0.54,2.25s0.85,1.17,1.47,1.52s1.33,0.54,2.11,0.54
			C317.56,73.4,318.26,73.22,318.89,72.86z"/>
		<path class="st2" d="M332.64,73.77c-1.17-0.64-2.09-1.54-2.75-2.68c-0.67-1.14-1-2.42-1-3.83c0-1.41,0.33-2.69,1-3.83
			c0.67-1.14,1.59-2.03,2.76-2.68c1.18-0.64,2.49-0.97,3.95-0.97c1.09,0,2.1,0.18,3.02,0.55c0.92,0.36,1.71,0.9,2.35,1.6l-0.99,0.99
			c-1.15-1.16-2.6-1.74-4.35-1.74c-1.16,0-2.22,0.27-3.17,0.8c-0.95,0.53-1.7,1.26-2.24,2.18c-0.54,0.92-0.81,1.96-0.81,3.11
			c0,1.15,0.27,2.18,0.81,3.11c0.54,0.92,1.28,1.65,2.24,2.18c0.95,0.53,2.01,0.8,3.17,0.8c1.76,0,3.21-0.59,4.35-1.76l0.99,0.99
			c-0.64,0.7-1.43,1.24-2.36,1.61c-0.93,0.37-1.94,0.56-3.03,0.56C335.12,74.74,333.81,74.42,332.64,73.77z"/>
		<path class="st2" d="M345.61,73.99c-0.85-0.48-1.53-1.15-2.02-2.01c-0.49-0.85-0.74-1.82-0.74-2.9s0.25-2.04,0.74-2.9
			c0.49-0.85,1.16-1.52,2.02-2c0.85-0.48,1.81-0.71,2.88-0.71c1.06,0,2.02,0.24,2.88,0.71c0.85,0.48,1.52,1.14,2.01,2
			s0.72,1.82,0.72,2.9s-0.24,2.04-0.72,2.9s-1.15,1.52-2.01,2.01c-0.85,0.48-1.81,0.72-2.88,0.72
			C347.42,74.72,346.46,74.48,345.61,73.99z M350.6,72.86c0.62-0.36,1.11-0.86,1.46-1.52c0.35-0.66,0.52-1.41,0.52-2.25
			s-0.18-1.59-0.52-2.25c-0.35-0.66-0.84-1.17-1.46-1.52c-0.62-0.36-1.33-0.54-2.11-0.54c-0.78,0-1.49,0.18-2.11,0.54
			s-1.11,0.86-1.47,1.52c-0.36,0.66-0.54,1.41-0.54,2.25s0.18,1.59,0.54,2.25s0.85,1.17,1.47,1.52s1.33,0.54,2.11,0.54
			C349.27,73.4,349.97,73.22,350.6,72.86z"/>
		<path class="st2" d="M373.66,64.68c0.79,0.8,1.19,1.97,1.19,3.53v6.4h-1.49v-6.26c0-1.15-0.28-2.02-0.83-2.62s-1.33-0.9-2.34-0.9
			c-1.15,0-2.05,0.35-2.71,1.06c-0.66,0.71-0.99,1.68-0.99,2.93v5.8h-1.49v-6.26c0-1.15-0.28-2.02-0.83-2.62
			c-0.55-0.6-1.34-0.9-2.36-0.9c-1.13,0-2.03,0.35-2.7,1.06c-0.67,0.71-1,1.68-1,2.93v5.8h-1.49V63.57h1.43v2.02
			c0.39-0.67,0.94-1.19,1.64-1.55c0.7-0.36,1.5-0.55,2.42-0.55c0.92,0,1.73,0.2,2.4,0.59c0.68,0.39,1.19,0.97,1.52,1.74
			c0.41-0.73,0.99-1.3,1.75-1.71c0.76-0.41,1.63-0.62,2.61-0.62C371.78,63.48,372.87,63.88,373.66,64.68z"/>
		<path class="st2" d="M386.88,64.19c0.84,0.47,1.5,1.13,1.97,1.98c0.48,0.85,0.71,1.83,0.71,2.92c0,1.11-0.24,2.09-0.71,2.94
			c-0.48,0.85-1.13,1.52-1.96,1.98c-0.83,0.47-1.77,0.7-2.82,0.7c-0.9,0-1.7-0.19-2.43-0.56c-0.72-0.37-1.31-0.91-1.77-1.63v6.15
			h-1.49V63.57h1.43v2.18c0.45-0.73,1.04-1.29,1.77-1.68c0.73-0.39,1.56-0.59,2.49-0.59C385.1,63.48,386.04,63.72,386.88,64.19z
			 M386.06,72.86c0.63-0.36,1.12-0.86,1.48-1.52s0.54-1.41,0.54-2.25s-0.18-1.59-0.54-2.24c-0.36-0.65-0.85-1.16-1.48-1.52
			c-0.63-0.36-1.33-0.55-2.1-0.55c-0.78,0-1.49,0.18-2.11,0.55c-0.62,0.36-1.11,0.87-1.47,1.52c-0.36,0.65-0.54,1.4-0.54,2.24
			s0.18,1.59,0.54,2.25s0.85,1.17,1.47,1.52c0.62,0.36,1.33,0.54,2.11,0.54C384.73,73.4,385.43,73.22,386.06,72.86z"/>
		<path class="st2" d="M399.2,64.57c0.77,0.72,1.15,1.79,1.15,3.2v6.85h-1.43v-1.72c-0.34,0.57-0.83,1.02-1.48,1.34
			c-0.65,0.32-1.42,0.48-2.32,0.48c-1.23,0-2.21-0.29-2.94-0.88c-0.73-0.59-1.09-1.37-1.09-2.33c0-0.94,0.34-1.69,1.02-2.27
			c0.68-0.57,1.76-0.86,3.24-0.86h3.51v-0.67c0-0.95-0.27-1.68-0.8-2.17c-0.53-0.5-1.31-0.75-2.33-0.75c-0.7,0-1.37,0.12-2.02,0.35
			s-1.2,0.55-1.66,0.96l-0.67-1.11c0.56-0.48,1.23-0.84,2.02-1.1c0.78-0.26,1.61-0.39,2.48-0.39
			C397.33,63.48,398.43,63.84,399.2,64.57z M397.52,72.97c0.6-0.38,1.05-0.94,1.34-1.67v-1.81h-3.46c-1.89,0-2.83,0.66-2.83,1.97
			c0,0.64,0.24,1.15,0.73,1.52c0.49,0.37,1.18,0.56,2.06,0.56C396.2,73.54,396.92,73.35,397.52,72.97z"/>
		<path class="st2" d="M412.82,64.69c0.82,0.81,1.23,1.98,1.23,3.52v6.4h-1.49v-6.26c0-1.15-0.29-2.02-0.86-2.62
			c-0.57-0.6-1.39-0.9-2.46-0.9c-1.19,0-2.13,0.35-2.82,1.06c-0.69,0.71-1.04,1.68-1.04,2.93v5.8h-1.49V63.57h1.43v2.04
			c0.41-0.67,0.97-1.19,1.69-1.56c0.72-0.37,1.56-0.56,2.51-0.56C410.9,63.48,412,63.89,412.82,64.69z"/>
		<path class="st2" d="M426.65,63.57l-5.52,12.37c-0.45,1.04-0.97,1.77-1.55,2.2c-0.59,0.43-1.3,0.65-2.12,0.65
			c-0.53,0-1.03-0.08-1.49-0.25c-0.46-0.17-0.86-0.42-1.2-0.76l0.69-1.11c0.56,0.56,1.23,0.84,2.02,0.84c0.5,0,0.93-0.14,1.29-0.42
			c0.36-0.28,0.69-0.76,1-1.43l0.48-1.07l-4.94-11.02h1.55l4.16,9.39l4.16-9.39H426.65z"/>
	</g>
</g>
</svg>
